<svg width="19" height="21" viewBox="0 0 19 21" fill="none" xmlns="http://www.w3.org/2000/svg">
<path fill-rule="evenodd" clip-rule="evenodd" d="M2.20842 7.87501C2.20842 3.84794 5.47301 0.583344 9.50012 0.583344C13.5272 0.583344 16.7918 3.84794 16.7918 7.87501V11.7957L18.6897 15.5918C19.0706 16.3537 18.5167 17.25 17.6649 17.25H13.5353C13.0727 19.0471 11.4414 20.375 9.49992 20.375C7.55846 20.375 5.92706 19.0471 5.46452 17.25H1.3353C0.48351 17.25 -0.0705002 16.3537 0.310437 15.5918L2.20842 11.7957V7.87501ZM7.69533 17.25C8.05554 17.8727 8.72877 18.2917 9.49992 18.2917C10.2711 18.2917 10.9443 17.8727 11.3045 17.25H7.69533ZM9.50012 2.66668C6.6236 2.66668 4.29175 4.99853 4.29175 7.87501V11.7957C4.29175 12.1192 4.21645 12.4381 4.07181 12.7275L2.85221 15.1667H16.1479L14.9284 12.7275C14.7838 12.4381 14.7085 12.1192 14.7085 11.7957V7.87501C14.7085 4.99853 12.3766 2.66668 9.50012 2.66668Z" fill="#475569"/>
</svg>
