<svg width="20" height="20" viewBox="0 0 20 20" fill="none" xmlns="http://www.w3.org/2000/svg">
<g clip-path="url(#clip0_313_1098)">
<path d="M15.0002 4.16664L12.5002 1.66664H5.00016C4.55814 1.66664 4.13421 1.84224 3.82165 2.1548C3.50909 2.46736 3.3335 2.89128 3.3335 3.33331V16.6666C3.3335 17.1087 3.50909 17.5326 3.82165 17.8451C4.13421 18.1577 4.55814 18.3333 5.00016 18.3333H15.0002C15.4422 18.3333 15.8661 18.1577 16.1787 17.8451C16.4912 17.5326 16.6668 17.1087 16.6668 16.6666" stroke="#94A3B8" stroke-width="1.66667" stroke-linecap="round" stroke-linejoin="round"/>
<path d="M6.6665 15H7.49984" stroke="#94A3B8" stroke-width="1.66667" stroke-linecap="round" stroke-linejoin="round"/>
<path d="M15.3335 7.99999C15.665 7.66847 16.1147 7.48222 16.5835 7.48222C17.0523 7.48222 17.502 7.66847 17.8335 7.99999C18.165 8.33151 18.3513 8.78115 18.3513 9.24999C18.3513 9.71883 18.165 10.1685 17.8335 10.5L14.1668 14.1667L10.8335 15L11.6668 11.6667L15.3335 7.99999Z" stroke="#94A3B8" stroke-width="1.66667" stroke-linecap="round" stroke-linejoin="round"/>
</g>
<defs>
<clipPath id="clip0_313_1098">
<rect width="20" height="20" fill="white"/>
</clipPath>
</defs>
</svg>
