<svg width="33" height="33" viewBox="0 0 33 33" fill="none" xmlns="http://www.w3.org/2000/svg">
<path d="M29.5741 13.7109H28.5001V13.6556H16.5001V18.9889H24.0354C22.9361 22.0936 19.9821 24.3222 16.5001 24.3222C12.0821 24.3222 8.50008 20.7402 8.50008 16.3222C8.50008 11.9042 12.0821 8.32222 16.5001 8.32222C18.5394 8.32222 20.3947 9.09156 21.8074 10.3482L25.5787 6.57689C23.1974 4.35756 20.0121 2.98889 16.5001 2.98889C9.13675 2.98889 3.16675 8.95889 3.16675 16.3222C3.16675 23.6856 9.13675 29.6556 16.5001 29.6556C23.8634 29.6556 29.8334 23.6856 29.8334 16.3222C29.8334 15.4282 29.7414 14.5556 29.5741 13.7109Z" fill="#FFC107"/>
<path d="M4.7041 10.1162L9.08477 13.3289C10.2701 10.3942 13.1408 8.32223 16.5001 8.32223C18.5394 8.32223 20.3948 9.09156 21.8074 10.3482L25.5788 6.57689C23.1974 4.35756 20.0121 2.98889 16.5001 2.98889C11.3788 2.98889 6.93743 5.88023 4.7041 10.1162Z" fill="#FF3D00"/>
<path d="M16.4999 29.6556C19.9439 29.6556 23.0732 28.3376 25.4392 26.1942L21.3126 22.7022C19.9289 23.7545 18.2382 24.3236 16.4999 24.3222C13.0319 24.3222 10.0872 22.1109 8.97788 19.0249L4.62988 22.3749C6.83655 26.6929 11.3179 29.6556 16.4999 29.6556Z" fill="#4CAF50"/>
<path d="M29.574 13.7109H28.5V13.6556H16.5V18.9889H24.0353C23.5095 20.4665 22.5622 21.7577 21.3107 22.7029L21.3127 22.7016L25.4393 26.1936C25.1473 26.4589 29.8333 22.9889 29.8333 16.3222C29.8333 15.4282 29.7413 14.5556 29.574 13.7109Z" fill="#1976D2"/>
</svg>
