<svg width="128" height="29" viewBox="0 0 128 29" fill="none" xmlns="http://www.w3.org/2000/svg">
<path d="M26.0118 17.1578C26.003 16.5851 25.534 16.1284 24.9613 16.1372L20.9053 16.1952L22.8393 13.7007C23.3031 13.1017 23.3804 12.3095 23.0431 11.6332C22.7058 10.9551 22.0242 10.5423 21.2689 10.5528L13.0039 10.6723L16.8615 5.69569L17.2866 3.51042L15.2243 4.42739L10.3548 10.7109L4.64574 10.7935C4.07307 10.8023 3.61634 11.2713 3.62512 11.844C3.63391 12.4166 4.10293 12.8733 4.6756 12.8646L8.73169 12.8066L6.79763 15.301C6.33387 15.9 6.25658 16.6923 6.59386 17.3686C6.91532 18.0133 7.54771 18.4208 8.26267 18.4472C8.2978 18.4472 8.33293 18.4489 8.36982 18.4472L16.6348 18.3277L12.7773 23.3043L12.3521 25.4896L14.4144 24.5726L19.2839 18.2891L24.993 18.2065C25.5656 18.1977 26.0224 17.7287 26.0136 17.156L26.0118 17.1578ZM18.2562 16.2338L8.58414 16.3726L11.379 12.7662L21.0511 12.6274L18.2562 16.2338Z" fill="#F8F9FB"/>
<path d="M40.9101 20.8555L40.7485 19.1288C39.9931 20.4586 38.6809 21.0892 37.1175 21.0892C33.7728 21.0892 31.635 18.6984 31.635 14.76C31.635 10.8216 33.7746 8.39566 37.2984 8.39566C39.7261 8.39566 41.8113 9.72544 42.3857 12.2603H40.283C39.8508 10.8585 38.7002 10.0856 37.244 10.0856C35.0148 10.0856 33.685 11.865 33.685 14.76C33.685 17.6549 35.0341 19.3993 37.2984 19.3993C38.9708 19.3993 40.3181 18.3927 40.4446 16.0546H37.5496V14.4912H42.3681V20.8555H40.9119H40.9101Z" fill="#F8F9FB"/>
<path d="M43.9104 11.2731H45.8339V12.6942C46.4628 11.5436 47.4518 11.0219 48.5673 11.0219C48.9449 11.0219 49.3051 11.1115 49.4842 11.2731V12.963C49.1962 12.8734 48.8554 12.8365 48.4601 12.8365C46.6262 12.8365 45.8357 13.952 45.8357 15.6225V20.8538H43.9122V11.2713L43.9104 11.2731Z" fill="#F8F9FB"/>
<path d="M49.8426 14.3999C50.1482 12.2779 51.6045 11.0201 53.9953 11.0201C56.6021 11.0201 57.8968 12.5484 57.8968 14.7776V18.5175C57.8968 19.6681 58.0057 20.3338 58.22 20.8538H56.2069C56.0628 20.4937 56.0084 19.9913 55.9908 19.452C55.181 20.585 53.9408 21.0874 52.7902 21.0874C50.8491 21.0874 49.5176 20.1705 49.5176 18.3365C49.5176 17.0243 50.236 16.0529 51.6747 15.5681C52.9518 15.1359 54.2447 15.0288 55.9715 15.0112V14.7951C55.9715 13.3933 55.3251 12.638 53.8495 12.638C52.6093 12.638 51.9435 13.3213 51.7643 14.3999H49.8408H49.8426ZM53.1521 19.5785C54.7524 19.5785 55.975 18.3014 55.975 16.7555V16.3234C52.2896 16.3585 51.4622 17.1684 51.4622 18.2645C51.4622 19.0743 52.128 19.5767 53.1521 19.5767V19.5785Z" fill="#F8F9FB"/>
<path d="M59.137 16.0722C59.137 12.8171 60.7004 11.0201 63.2001 11.0201C64.2962 11.0201 65.1956 11.4698 65.8069 12.3499V7.90906H67.7305V20.8538H65.8069V19.6856C65.1956 20.585 64.2962 21.0874 63.2001 21.0874C60.6652 21.0874 59.137 19.199 59.137 16.0722ZM65.8069 16.0722C65.8069 13.8781 64.9444 12.638 63.4513 12.638C61.9581 12.638 61.0956 13.8606 61.0956 16.0722C61.0956 18.2838 61.9581 19.4695 63.4513 19.4695C64.9444 19.4695 65.8069 18.2838 65.8069 16.0722Z" fill="#F8F9FB"/>
<path d="M73.4291 21.0892C70.6061 21.0892 68.8811 19.2008 68.8811 16.074C68.8811 12.9472 70.6079 11.0219 73.3395 11.0219C76.0711 11.0219 77.7803 12.8909 77.7803 15.9668V16.4341H70.8398C70.9487 18.3945 71.8639 19.4907 73.4291 19.4907C74.6517 19.4907 75.5142 18.9145 75.8392 17.7287H77.8523C77.3306 19.9579 75.6776 21.091 73.4291 21.091V21.0892ZM70.8942 15.1201H75.7847C75.5511 13.5023 74.7061 12.6204 73.3395 12.6204C71.9728 12.6204 71.1279 13.5005 70.8942 15.1201Z" fill="#F8F9FB"/>
<path d="M79.001 7.91083H80.9245V12.5501C81.571 11.526 82.5775 11.0218 83.8195 11.0218C85.815 11.0218 87.0552 12.19 87.0552 14.4561V20.8573H85.1492V14.8531C85.1492 13.4689 84.5379 12.6239 83.2257 12.6239C81.787 12.6239 80.9245 13.901 80.9245 15.2308V20.8573H79.001V7.91258V7.91083Z" fill="#F8F9FB"/>
<path d="M94.732 11.273H96.6379V20.8555H94.732V19.5609C94.1031 20.585 93.0965 21.0891 91.8739 21.0891C89.9135 21.0891 88.6926 19.9385 88.6926 17.6725V11.2712H90.6161V17.2755C90.6161 18.6597 91.1923 19.4871 92.4677 19.4871C93.8695 19.4871 94.7337 18.21 94.7337 16.8802V11.2712L94.732 11.273Z" fill="#F8F9FB"/>
<path d="M98.2732 20.8555V7.91083H100.197V12.3868C100.808 11.5067 101.707 11.0201 102.804 11.0201C105.321 11.0201 106.849 12.9085 106.849 16.0353C106.849 19.1621 105.286 21.0874 102.804 21.0874C101.707 21.0874 100.808 20.6377 100.197 19.7752V20.8538H98.2732V20.8555ZM100.197 16.0371C100.197 18.2311 101.042 19.4713 102.552 19.4713C104.063 19.4713 104.89 18.2663 104.89 16.0371C104.89 13.8079 104.046 12.6397 102.552 12.6397C101.059 12.6397 100.197 13.8448 100.197 16.0371Z" fill="#F8F9FB"/>
<path d="M118.048 18.1046H112.474L111.43 20.8555H109.417L114.127 8.62926H116.482L121.192 20.8555H119.089L118.046 18.1046H118.048ZM113.085 16.5219H117.436L115.62 11.7578L115.26 10.5721L114.9 11.7578L113.083 16.5219H113.085Z" fill="#F8F9FB"/>
<path d="M122.109 8.62926H124.122V20.8555H122.109V8.62926Z" fill="#F8F9FB"/>
</svg>
