<svg width="208" height="49" viewBox="0 0 208 49" fill="none" xmlns="http://www.w3.org/2000/svg">
<path d="M42.9788 28.7015C42.9647 27.7871 42.2158 27.0578 41.3014 27.0719L34.8247 27.1644L37.913 23.1814C38.6535 22.2249 38.7769 20.9598 38.2383 19.8799C37.6998 18.7972 36.6115 18.138 35.4053 18.1548L22.2079 18.3456L28.3676 10.3991L29.0464 6.90968L25.7534 8.37388L17.978 18.4073L8.86182 18.5391C7.9474 18.5531 7.21811 19.3021 7.23213 20.2165C7.24616 21.1309 7.99508 21.8602 8.90951 21.8462L15.3862 21.7536L12.2979 25.7367C11.5574 26.6932 11.434 27.9582 11.9725 29.0381C12.4859 30.0676 13.4956 30.7183 14.6373 30.7604C14.6934 30.7604 14.7495 30.7632 14.8084 30.7604L28.0058 30.5697L21.8461 38.5162L21.1673 42.0055L24.4603 40.5414L32.2357 30.508L41.3519 30.3761C42.2663 30.3621 42.9956 29.6132 42.9816 28.6987L42.9788 28.7015ZM30.5948 27.2261L15.1506 27.4477L19.6133 21.6891L35.0575 21.4675L30.5948 27.2261Z" fill="#0029F5"/>
<path d="M66.768 34.606L66.51 31.8487C65.3038 33.9721 63.2085 34.9791 60.7121 34.9791C55.3714 34.9791 51.9578 31.1615 51.9578 24.8728C51.9578 18.584 55.3742 14.7103 61.001 14.7103C64.8775 14.7103 68.207 16.8337 69.1242 20.8813H65.7667C65.0766 18.6429 63.2394 17.4087 60.9141 17.4087C57.3545 17.4087 55.2312 20.2502 55.2312 24.8728C55.2312 29.4954 57.3854 32.2807 61.001 32.2807C63.6713 32.2807 65.8228 30.6735 66.0247 26.94H61.4021V24.4436H69.0962V34.606H66.7708H66.768Z" fill="#0029F5"/>
<path d="M71.5591 19.3049H74.6305V21.5741C75.6347 19.7369 77.2139 18.9038 78.9951 18.9038C79.5981 18.9038 80.1732 19.0468 80.4593 19.3049V22.0033C79.9993 21.8602 79.4551 21.8013 78.824 21.8013C75.8956 21.8013 74.6333 23.5825 74.6333 26.25V34.6032H71.5619V19.3021L71.5591 19.3049Z" fill="#0029F5"/>
<path d="M81.0314 24.2977C81.5194 20.9093 83.8448 18.901 87.6623 18.901C91.8249 18.901 93.8922 21.3413 93.8922 24.9008V30.8726C93.8922 32.7099 94.0661 33.7729 94.4083 34.6032H91.1938C90.9638 34.0282 90.8768 33.226 90.8488 32.3649C89.5557 34.1741 87.5754 34.9763 85.7381 34.9763C82.6386 34.9763 80.5125 33.5121 80.5125 30.5837C80.5125 28.4884 81.6597 26.9372 83.957 26.1631C85.9962 25.473 88.0606 25.3019 90.8179 25.2739V24.9289C90.8179 22.6905 89.7857 21.4844 87.4295 21.4844C85.4492 21.4844 84.3861 22.5755 84.1 24.2977H81.0286H81.0314ZM86.3159 32.5668C88.8713 32.5668 90.8235 30.5276 90.8235 28.0592V27.3692C84.9387 27.4253 83.6176 28.7184 83.6176 30.4687C83.6176 31.7618 84.6806 32.564 86.3159 32.564V32.5668Z" fill="#0029F5"/>
<path d="M95.8723 26.9681C95.8723 21.7705 98.3687 18.901 102.36 18.901C104.111 18.901 105.547 19.619 106.523 21.0243V13.9334H109.594V34.6032H106.523V32.7379C105.547 34.1741 104.111 34.9763 102.36 34.9763C98.3126 34.9763 95.8723 31.9609 95.8723 26.9681ZM106.523 26.9681C106.523 23.4647 105.146 21.4844 102.761 21.4844C100.377 21.4844 98.9999 23.4366 98.9999 26.9681C98.9999 30.4995 100.377 32.3929 102.761 32.3929C105.146 32.3929 106.523 30.4995 106.523 26.9681Z" fill="#0029F5"/>
<path d="M118.694 34.9791C114.186 34.9791 111.432 31.9638 111.432 26.9709C111.432 21.978 114.189 18.9038 118.551 18.9038C122.912 18.9038 125.642 21.8883 125.642 26.7998V27.5459H114.559C114.733 30.6763 116.194 32.4266 118.694 32.4266C120.646 32.4266 122.023 31.5065 122.542 29.6132H125.757C124.924 33.1727 122.284 34.9819 118.694 34.9819V34.9791ZM114.646 25.4478H122.455C122.082 22.8644 120.733 21.4563 118.551 21.4563C116.368 21.4563 115.019 22.8616 114.646 25.4478Z" fill="#0029F5"/>
<path d="M127.591 13.9362H130.663V21.3441C131.695 19.7088 133.302 18.9038 135.285 18.9038C138.472 18.9038 140.452 20.7691 140.452 24.3875V34.6088H137.408V25.0214C137.408 22.8111 136.432 21.4619 134.337 21.4619C132.04 21.4619 130.663 23.5011 130.663 25.6245V34.6088H127.591V13.939V13.9362Z" fill="#0029F5"/>
<path d="M152.71 19.3049H155.753V34.606H152.71V32.5388C151.705 34.1741 150.098 34.9791 148.146 34.9791C145.016 34.9791 143.066 33.1418 143.066 29.5234V19.3021H146.138V28.8895C146.138 31.0998 147.058 32.421 149.094 32.421C151.332 32.421 152.712 30.3817 152.712 28.2584V19.3021L152.71 19.3049Z" fill="#0029F5"/>
<path d="M158.364 34.606V13.9362H161.436V21.0832C162.412 19.678 163.848 18.901 165.598 18.901C169.618 18.901 172.058 21.9163 172.058 26.9092C172.058 31.902 169.562 34.9763 165.598 34.9763C163.848 34.9763 162.412 34.2582 161.436 32.881V34.6032H158.364V34.606ZM161.436 26.912C161.436 30.4154 162.785 32.3957 165.197 32.3957C167.609 32.3957 168.931 30.4715 168.931 26.912C168.931 23.3525 167.581 21.4872 165.197 21.4872C162.813 21.4872 161.436 23.4114 161.436 26.912Z" fill="#0029F5"/>
<path d="M189.94 30.2134H181.04L179.374 34.606H176.159L183.679 15.0834H187.441L194.961 34.606H191.603L189.937 30.2134H189.94ZM182.016 27.6862H188.964L186.064 20.0791L185.489 18.1857L184.914 20.0791L182.013 27.6862H182.016Z" fill="#0029F5"/>
<path d="M196.425 15.0834H199.64V34.606H196.425V15.0834Z" fill="#0029F5"/>
</svg>
