<svg width="21" height="21" viewBox="0 0 21 21" fill="none" xmlns="http://www.w3.org/2000/svg">
<path d="M6.23055 12.7222L2.43888 6.1722C2.27538 5.8896 2.19849 5.56519 2.21775 5.23927C2.23701 4.91334 2.35157 4.60025 2.54721 4.33887L3.88888 2.55554C4.04412 2.34854 4.24543 2.18054 4.47686 2.06482C4.70828 1.94911 4.96347 1.88887 5.22221 1.88887H15.2222C15.481 1.88887 15.7361 1.94911 15.9676 2.06482C16.199 2.18054 16.4003 2.34854 16.5555 2.55554L17.8889 4.33887C18.0858 4.59941 18.2019 4.91207 18.2226 5.23801C18.2433 5.56395 18.1679 5.8888 18.0055 6.1722L14.2139 12.7222" stroke="#94A3B8" stroke-width="1.66667" stroke-linecap="round" stroke-linejoin="round"/>
<path d="M9.38877 10.2222L4.48877 2.0555" stroke="#94A3B8" stroke-width="1.66667" stroke-linecap="round" stroke-linejoin="round"/>
<path d="M11.0557 10.2222L15.9557 2.0555" stroke="#94A3B8" stroke-width="1.66667" stroke-linecap="round" stroke-linejoin="round"/>
<path d="M6.88867 6.05551H13.5553" stroke="#94A3B8" stroke-width="1.66667" stroke-linecap="round" stroke-linejoin="round"/>
<path d="M10.2223 18.5556C12.5235 18.5556 14.389 16.6901 14.389 14.3889C14.389 12.0877 12.5235 10.2222 10.2223 10.2222C7.92114 10.2222 6.05566 12.0877 6.05566 14.3889C6.05566 16.6901 7.92114 18.5556 10.2223 18.5556Z" stroke="#94A3B8" stroke-width="1.66667" stroke-linecap="round" stroke-linejoin="round"/>
<path d="M10.2223 15.2222V13.5555H9.80566" stroke="#94A3B8" stroke-width="1.66667" stroke-linecap="round" stroke-linejoin="round"/>
</svg>
