<svg width="21" height="20" viewBox="0 0 21 20" fill="none" xmlns="http://www.w3.org/2000/svg">
<path d="M15.5 6.66669C16.8807 6.66669 18 5.5474 18 4.16669C18 2.78597 16.8807 1.66669 15.5 1.66669C14.1193 1.66669 13 2.78597 13 4.16669C13 5.5474 14.1193 6.66669 15.5 6.66669Z" stroke="#94A3B8" stroke-width="1.66667" stroke-linecap="round" stroke-linejoin="round"/>
<path d="M5.5 12.5C6.88071 12.5 8 11.3807 8 10C8 8.61929 6.88071 7.5 5.5 7.5C4.11929 7.5 3 8.61929 3 10C3 11.3807 4.11929 12.5 5.5 12.5Z" stroke="#94A3B8" stroke-width="1.66667" stroke-linecap="round" stroke-linejoin="round"/>
<path d="M15.5 18.3333C16.8807 18.3333 18 17.214 18 15.8333C18 14.4526 16.8807 13.3333 15.5 13.3333C14.1193 13.3333 13 14.4526 13 15.8333C13 17.214 14.1193 18.3333 15.5 18.3333Z" stroke="#94A3B8" stroke-width="1.66667" stroke-linecap="round" stroke-linejoin="round"/>
<path d="M7.6582 11.2584L13.3499 14.575" stroke="#94A3B8" stroke-width="1.66667" stroke-linecap="round" stroke-linejoin="round"/>
<path d="M13.3415 5.42499L7.6582 8.74165" stroke="#94A3B8" stroke-width="1.66667" stroke-linecap="round" stroke-linejoin="round"/>
</svg>
