<svg width="20" height="20" viewBox="0 0 20 20" fill="none" xmlns="http://www.w3.org/2000/svg">
<path d="M9.99989 15.8333C10.2209 15.8333 10.4329 15.9211 10.5891 16.0774C10.7454 16.2337 10.8332 16.4457 10.8332 16.6667V17.5C10.8332 17.721 10.7454 17.933 10.5891 18.0893C10.4329 18.2455 10.2209 18.3333 9.99989 18.3333C9.77888 18.3333 9.56692 18.2455 9.41063 18.0893C9.25435 17.933 9.16656 17.721 9.16656 17.5V16.6667C9.16656 16.4457 9.25435 16.2337 9.41063 16.0774C9.56692 15.9211 9.77888 15.8333 9.99989 15.8333ZM15.3032 14.125L15.8924 14.7142C16.0442 14.8713 16.1282 15.0818 16.1263 15.3003C16.1244 15.5188 16.0367 15.7278 15.8822 15.8824C15.7277 16.0369 15.5187 16.1245 15.3002 16.1264C15.0817 16.1283 14.8712 16.0443 14.7141 15.8925L14.1249 15.3033C13.9731 15.1462 13.8891 14.9357 13.891 14.7172C13.8929 14.4987 13.9805 14.2897 14.135 14.1352C14.2895 13.9806 14.4986 13.893 14.7171 13.8911C14.9356 13.8892 15.1461 13.9732 15.3032 14.125ZM4.69656 14.125C4.84652 13.9755 5.04775 13.8888 5.25938 13.8823C5.471 13.8759 5.67715 13.9502 5.83596 14.0902C5.99476 14.2302 6.09431 14.4255 6.11439 14.6362C6.13447 14.847 6.07357 15.0575 5.94406 15.225L5.87489 15.3033L5.28572 15.8925C5.13576 16.042 4.93453 16.1287 4.7229 16.1352C4.51128 16.1417 4.30513 16.0673 4.14632 15.9273C3.98752 15.7873 3.88797 15.592 3.86789 15.3813C3.84781 15.1705 3.90871 14.96 4.03822 14.7925L4.10739 14.7142L4.69656 14.125ZM9.99989 5.00001C11.326 5.00001 12.5977 5.52679 13.5354 6.46447C14.4731 7.40215 14.9999 8.67392 14.9999 10C14.9999 11.3261 14.4731 12.5979 13.5354 13.5355C12.5977 14.4732 11.326 15 9.99989 15C8.67381 15 7.40204 14.4732 6.46436 13.5355C5.52667 12.5979 4.99989 11.3261 4.99989 10C4.99989 8.67392 5.52667 7.40215 6.46436 6.46447C7.40204 5.52679 8.67381 5.00001 9.99989 5.00001ZM9.99989 6.66667C9.11584 6.66667 8.26799 7.01786 7.64287 7.64298C7.01775 8.2681 6.66656 9.11595 6.66656 10C6.66656 10.8841 7.01775 11.7319 7.64287 12.357C8.26799 12.9821 9.11584 13.3333 9.99989 13.3333C10.8839 13.3333 11.7318 12.9821 12.3569 12.357C12.982 11.7319 13.3332 10.8841 13.3332 10C13.3332 9.11595 12.982 8.2681 12.3569 7.64298C11.7318 7.01786 10.8839 6.66667 9.99989 6.66667ZM3.33322 9.16667C3.54562 9.16691 3.74992 9.24824 3.90436 9.39404C4.05881 9.53985 4.15175 9.73913 4.1642 9.95117C4.17665 10.1632 4.10766 10.372 3.97134 10.5349C3.83501 10.6977 3.64164 10.8024 3.43072 10.8275L3.33322 10.8333H2.49989C2.28749 10.8331 2.0832 10.7518 1.92875 10.606C1.7743 10.4602 1.68136 10.2609 1.66891 10.0488C1.65647 9.83681 1.72545 9.62802 1.86178 9.46514C1.9981 9.30227 2.19148 9.19759 2.40239 9.1725L2.49989 9.16667H3.33322ZM17.4999 9.16667C17.7209 9.16667 17.9329 9.25447 18.0891 9.41075C18.2454 9.56703 18.3332 9.77899 18.3332 10C18.3332 10.221 18.2454 10.433 18.0891 10.5893C17.9329 10.7455 17.7209 10.8333 17.4999 10.8333H16.6666C16.4455 10.8333 16.2336 10.7455 16.0773 10.5893C15.921 10.433 15.8332 10.221 15.8332 10C15.8332 9.77899 15.921 9.56703 16.0773 9.41075C16.2336 9.25447 16.4455 9.16667 16.6666 9.16667H17.4999ZM4.10739 4.1075C4.25088 3.96402 4.4418 3.87783 4.64432 3.8651C4.84684 3.85236 5.04705 3.91396 5.20739 4.03834L5.28572 4.1075L5.87489 4.69667C6.02435 4.84664 6.11112 5.04787 6.11758 5.25949C6.12404 5.47112 6.04971 5.67727 5.90968 5.83607C5.76966 5.99487 5.57443 6.09443 5.36366 6.1145C5.15289 6.13458 4.94238 6.07368 4.77489 5.94417L4.69656 5.87501L4.10739 5.28584C3.95116 5.12957 3.8634 4.91764 3.8634 4.69667C3.8634 4.4757 3.95116 4.26378 4.10739 4.1075ZM15.8924 4.1075C16.0486 4.26378 16.1364 4.4757 16.1364 4.69667C16.1364 4.91764 16.0486 5.12957 15.8924 5.28584L15.3032 5.87501C15.2264 5.9546 15.1344 6.01808 15.0327 6.06176C14.9311 6.10543 14.8217 6.12842 14.7111 6.12938C14.6004 6.13034 14.4907 6.10926 14.3883 6.06736C14.2858 6.02546 14.1928 5.96358 14.1146 5.88533C14.0363 5.80709 13.9744 5.71405 13.9325 5.61163C13.8906 5.50922 13.8696 5.39949 13.8705 5.28884C13.8715 5.17819 13.8945 5.06884 13.9381 4.96717C13.9818 4.8655 14.0453 4.77354 14.1249 4.69667L14.7141 4.1075C14.8703 3.95128 15.0823 3.86352 15.3032 3.86352C15.5242 3.86352 15.7361 3.95128 15.8924 4.1075ZM9.99989 1.66667C10.2209 1.66667 10.4329 1.75447 10.5891 1.91075C10.7454 2.06703 10.8332 2.27899 10.8332 2.50001V3.33334C10.8332 3.55435 10.7454 3.76631 10.5891 3.92259C10.4329 4.07887 10.2209 4.16667 9.99989 4.16667C9.77888 4.16667 9.56692 4.07887 9.41063 3.92259C9.25435 3.76631 9.16656 3.55435 9.16656 3.33334V2.50001C9.16656 2.27899 9.25435 2.06703 9.41063 1.91075C9.56692 1.75447 9.77888 1.66667 9.99989 1.66667Z" fill="#E8F5FF"/>
</svg>
